General
Complete name                    : Tony Esposito - Kalimba De Luna.mpg
Format                           : MPEG-PS
File size                        : 171 MiB
Duration                         : 3mn 46s
Overall bit rate                 : 6 333 Kbps

Video
ID                               : 224 (0xE0)
Format                           : MPEG Video
Format version                   : Version 2
Format profile                   : Main@Main
Format settings, BVOP            : Yes
Format settings, Matrix          : Default
Format settings, GOP             : M=3, N=12
Duration                         : 3mn 46s
Bit rate mode                    : Variable
Bit rate                         : 5 983 Kbps
Nominal bit rate                 : 9 500 Kbps
Width                            : 720 pixels
Height                           : 576 pixels
Display aspect ratio             : 4:3
Frame rate                       : 25.000 fps
Standard                         : PAL
Color space                      : YUV
Chroma subsampling               : 4:2:0
Bit depth                        : 8 bits
Scan type                        : Interlaced
Scan order                       : Bottom Field First
Bits/(Pixel*Frame)               : 0.577
Stream size                      : 162 MiB (94%)

Audio
ID                               : 192 (0xC0)
Format                           : MPEG Audio
Format version                   : Version 1
Format profile                   : Layer 2
Duration                         : 3mn 46s
Bit rate mode                    : Constant
Bit rate                         : 224 Kbps
Channel(s)                       : 2 channels
Sampling rate                    : 48.0 KHz
Stream size                      : 6.05 MiB (4%)

Menu

